<svg xmlns="http://www.w3.org/2000/svg" width="910" height="830" viewBox="0 0 9100 8300" fill='#D45F76'>
  <path d="M8984 8215 c-185 -275 -492 -588 -1043 -1064 -414 -358 -716 -556 -1041 -685 -246 -97 -387 -120 -540 -88 -99 21 -247 79 -233 93 4 4 45 30 91 58 195 117 391 284 491 420 105 141 157 298 148 442 -7 102 -36 167 -103 228 -251 230 -753 38 -956 -364 -123 -243 -80 -474 125 -678 49 -49 87 -90 86 -91 -12 -11 -146 -73 -237 -110 -283 -116 -607 -196 -947 -236 -49 -6 -232 -15 -405 -20 -268 -7 -328 -12 -400 -30 -333 -82 -540 -251 -699 -568 -129 -257 -179 -543 -201 -1142 -11 -308 -25 -492 -42 -555 -28 -108 -77 -167 -451 -537 -165 -164 -300 -298 -301 -298 -1 0 -1 78 -2 173 0 181 -17 330 -59 538 -86 420 -201 681 -380 855 -154 150 -335 203 -538 158 -195 -44 -297 -144 -297 -292 0 -153 127 -413 325 -667 174 -222 447 -508 637 -667 111 -92 148 -144 164 -227 7 -34 7 -34 -72 9 -239 131 -310 191 -819 690 -334 326 -654 581 -838 665 -193 88 -324 69 -381 -54 -28 -61 -30 -247 -4 -331 55 -176 233 -360 506 -527 162 -98 503 -265 827 -403 160 -68 360 -156 445 -195 154 -71 154 -71 151 -126 -1 -30 -4 -55 -5 -56 -1 -1 -21 7 -45 19 -93 46 -204 19 -281 -68 -98 -112 -94 -272 9 -341 59 -40 134 -25 215 41 23 18 55 40 73 49 42 22 71 61 84 114 6 24 13 43 14 43 2 0 16 -7 31 -15 16 -8 46 -15 67 -15 37 0 37 0 37 -277 0 -624 64 -1165 181 -1530 81 -253 193 -411 347 -489 51 -26 67 -29 152 -29 83 0 102 3 151 28 72 35 135 98 167 167 22 46 27 73 30 165 3 93 0 129 -23 230 -39 173 -80 277 -225 570 -142 287 -273 518 -495 880 -215 349 -200 317 -165 337 28 16 28 16 92 -60 174 -209 330 -451 519 -805 142 -268 238 -376 404 -457 201 -98 538 -115 695 -35 53 27 104 78 119 118 58 153 -104 503 -335 727 -137 133 -276 221 -639 408 -361 186 -597 310 -608 321 -4 4 10 37 31 72 68 112 83 172 58 230 -6 13 14 21 112 48 225 61 346 124 485 251 76 70 151 177 167 238 27 104 -47 202 -152 202 -95 0 -174 -59 -367 -270 -141 -155 -190 -202 -316 -303 -139 -112 -208 -161 -197 -140 13 21 160 166 324 316 113 104 322 327 379 406 52 70 61 138 74 546 25 771 117 1170 340 1467 120 160 264 265 440 323 138 45 240 57 525 60 275 4 450 20 685 65 278 53 584 148 805 249 131 59 131 59 208 21 164 -82 314 -109 469 -86 160 24 314 85 597 237 307 166 434 263 1036 789 365 319 592 563 769 828 51 76 61 96 51 107 -23 27 -38 16 -96 -70z m-2323 -572 c190 -84 203 -353 30 -618 -102 -157 -369 -377 -599 -494 -43 -22 -43 -22 -93 16 -100 75 -184 199 -214 314 -68 253 110 552 422 711 187 96 342 120 454 71z m-4948 -3006 c161 -76 308 -264 400 -512 116 -310 185 -786 162 -1117 -5 -85 -11 -110 -26 -127 -11 -12 -23 -21 -27 -21 -4 0 -15 21 -24 48 -28 76 -51 105 -145 183 -114 94 -351 327 -460 451 -336 382 -493 656 -493 859 0 162 190 282 435 276 92 -2 106 -5 178 -40z m-1318 -427 c78 -27 149 -67 275 -158 233 -167 374 -291 775 -682 319 -311 422 -398 574 -487 53 -31 100 -60 105 -64 4 -4 -14 -29 -42 -56 -27 -26 -54 -57 -59 -67 -12 -23 -6 -25 -228 77 -77 35 -252 113 -390 172 -748 322 -1070 516 -1226 738 -62 89 -90 163 -96 259 -9 123 36 235 108 271 46 23 133 21 204 -3z m2945 -600 c15 -15 20 -33 20 -72 0 -68 -36 -132 -127 -229 -103 -109 -230 -191 -373 -241 -74 -26 -312 -89 -317 -85 -2 3 34 36 79 74 46 39 148 137 228 219 266 273 289 295 354 325 72 34 109 36 136 9z m-746 -686 c9 -4 16 -18 16 -33 0 -36 -51 -137 -93 -186 -33 -38 -33 -38 -136 16 -102 54 -102 54 -69 82 37 32 199 113 238 120 14 2 26 5 27 6 1 0 8 -2 17 -5z m-409 -163 c-3 -6 -25 -39 -48 -75 -40 -60 -44 -63 -62 -49 -19 14 -18 17 43 74 58 55 81 72 67 50z m184 -72 c93 -51 93 -51 35 -111 -84 -85 -89 -87 -130 -47 -33 32 -34 35 -34 114 0 45 3 85 7 88 12 13 28 7 122 -44z m-180 -123 c1 -18 0 -18 -19 -1 -16 14 -17 21 -8 39 11 20 11 20 19 1 4 -11 8 -29 8 -39z m-120 35 c11 -7 10 -16 -9 -47 -26 -41 -36 -33 -26 22 7 36 12 39 35 25z m805 -177 c371 -192 639 -337 726 -392 230 -145 412 -394 485 -664 24 -91 17 -157 -22 -205 -63 -78 -170 -108 -383 -107 -165 0 -249 18 -368 78 -146 74 -225 163 -334 381 -124 246 -364 620 -526 821 -87 107 -87 107 -7 185 44 43 82 79 84 79 2 0 157 -79 345 -176z m-684 30 c0 -35 -16 -44 -78 -44 -46 0 -48 19 -11 86 33 57 33 57 61 23 18 -21 28 -45 28 -65z m-234 42 c19 -19 34 -43 34 -53 0 -28 -98 -173 -127 -186 -23 -10 -69 -5 -153 19 -24 7 -25 7 -9 -17 10 -15 36 -30 70 -40 53 -16 53 -16 22 -33 -50 -25 -109 -21 -140 10 -23 23 -25 31 -20 79 13 131 131 253 246 255 36 0 49 -6 77 -34z m320 -25 c-15 -24 -36 -11 -36 21 0 32 0 32 21 11 12 -11 18 -26 15 -32z m134 -351 c465 -747 722 -1289 762 -1606 26 -207 -40 -343 -202 -417 -64 -28 -169 -29 -232 0 -211 97 -370 450 -443 988 -35 265 -66 747 -68 1080 -2 178 4 229 23 208 4 -4 76 -118 160 -253z"></path>
</svg>
