<svg xmlns="http://www.w3.org/2000/svg" fill="#DE7C8F" width="1024" height="1024" viewBox="0 0 10240 10240">
  <path d="M4475 9648 c-136 -32 -215 -69 -308 -142 -135 -107 -220 -254 -256 -442 -25 -133 -1 -272 73 -419 56 -113 189 -245 299 -299 124 -61 224 -80 366 -72 113 7 151 17 276 77 106 51 237 186 291 299 23 47 46 103 52 125 47 173 31 334 -52 505 -69 142 -228 285 -373 336 -121 41 -273 55 -368 32z"></path>
  <path d="M7194 9640 c-126 -33 -239 -97 -328 -186 -47 -47 -112 -137 -132 -184 -28 -63 -33 -77 -43 -110 -42 -148 -40 -264 7 -416 49 -159 191 -322 348 -402 103 -52 172 -67 314 -67 114 1 145 4 200 24 87 30 104 38 181 88 137 89 237 227 290 403 9 29 14 94 14 180 -1 116 -4 144 -24 200 -36 99 -57 139 -109 210 -163 221 -458 327 -718 260z"></path>
  <path d="M4220 7799 c-192 -18 -345 -62 -530 -152 -87 -42 -271 -154 -290 -176 -3 -3 -34 -31 -70 -61 -132 -112 -250 -244 -357 -400 -65 -95 -158 -268 -223 -415 -12 -27 -32 -72 -44 -100 -13 -27 -28 -66 -35 -85 -7 -19 -17 -44 -22 -55 -11 -26 -82 -247 -99 -305 -7 -25 -16 -56 -20 -70 -15 -46 -58 -233 -80 -345 -6 -33 -15 -78 -20 -100 -5 -22 -14 -69 -20 -105 -6 -36 -15 -83 -20 -105 -5 -22 -13 -66 -19 -97 -6 -32 -16 -84 -22 -115 -6 -32 -14 -76 -19 -98 -5 -22 -14 -69 -20 -105 -6 -36 -15 -83 -20 -105 -5 -22 -14 -69 -20 -105 -6 -36 -15 -83 -20 -105 -8 -40 -22 -111 -41 -215 -6 -30 -14 -73 -19 -95 -5 -22 -14 -69 -20 -105 -6 -36 -15 -83 -20 -105 -5 -22 -14 -69 -20 -105 -6 -36 -15 -83 -20 -105 -8 -40 -22 -111 -41 -215 -6 -30 -14 -73 -19 -95 -5 -22 -14 -69 -20 -105 -6 -36 -15 -83 -20 -105 -5 -22 -14 -69 -20 -105 -6 -36 -15 -83 -20 -105 -5 -22 -13 -65 -19 -95 -19 -104 -33 -175 -41 -215 -5 -22 -14 -69 -20 -105 -6 -36 -15 -83 -20 -105 -5 -22 -14 -69 -20 -105 -6 -36 -15 -83 -20 -105 -5 -22 -13 -65 -19 -95 -19 -104 -33 -175 -41 -215 -5 -22 -14 -69 -20 -105 -15 -86 -29 -154 -43 -213 -13 -54 3 -45 -237 -127 -30 -10 -107 -37 -170 -60 -63 -22 -149 -52 -190 -66 -107 -36 -159 -61 -208 -101 -40 -33 -110 -125 -126 -168 -103 -270 25 -562 283 -644 41 -13 122 -14 153 -2 13 5 57 19 98 31 41 13 100 31 130 40 30 9 89 27 130 40 41 13 100 31 130 40 62 20 249 77 295 91 114 34 227 75 265 96 102 58 170 159 228 338 16 50 53 165 83 257 54 167 54 167 3259 171 2876 3 3211 5 3265 19 180 47 279 117 330 230 34 76 55 180 55 273 0 62 -6 94 -40 210 -5 17 -14 48 -20 70 -19 69 -28 98 -50 170 -12 39 -26 85 -31 103 -5 17 -14 49 -20 70 -20 72 -28 98 -49 167 -22 72 -31 101 -50 170 -19 69 -28 98 -50 170 -12 39 -26 85 -31 103 -5 17 -13 48 -19 67 -5 19 -14 50 -19 68 -5 17 -19 64 -31 102 -12 39 -26 85 -31 103 -5 17 -13 48 -19 67 -5 19 -14 50 -19 68 -5 17 -19 64 -31 102 -21 69 -29 95 -49 168 -6 20 -15 52 -20 70 -5 17 -19 64 -31 102 -12 39 -26 84 -30 100 -19 66 -29 102 -39 135 -5 19 -19 67 -31 105 -12 39 -26 85 -31 103 -5 17 -13 48 -19 67 -5 19 -14 50 -19 68 -5 17 -19 64 -31 102 -12 39 -26 85 -31 103 -5 17 -13 48 -19 67 -5 19 -14 50 -19 68 -5 17 -19 64 -31 102 -12 39 -30 102 -40 140 -100 378 -279 613 -529 694 -64 21 -64 21 -2242 21 -1198 0 -2180 4 -2183 9 -7 10 54 128 107 205 104 153 198 240 337 308 104 51 107 52 200 80 75 22 75 22 1795 27 1720 6 1720 6 1788 38 78 37 161 116 194 183 52 110 70 213 53 308 -32 181 -103 283 -250 355 -65 32 -65 32 -1780 33 -943 1 -1753 -3 -1800 -7z m2792 -2679 c52 -15 116 -67 146 -120 21 -37 26 -58 26 -120 1 -96 -23 -139 -131 -239 -300 -278 -679 -476 -1038 -541 -169 -31 -472 -36 -595 -9 -25 5 -67 14 -95 20 -88 17 -220 57 -280 84 -16 7 -50 21 -75 31 -123 49 -324 168 -455 268 -118 91 -248 212 -272 254 -24 40 -28 58 -27 122 0 83 19 133 70 184 49 49 95 66 177 66 94 0 114 -10 241 -122 55 -49 151 -123 213 -164 111 -74 303 -174 335 -174 9 0 19 -4 22 -9 3 -5 18 -11 33 -14 16 -3 46 -10 68 -16 183 -50 434 -55 600 -12 198 52 355 122 505 224 46 32 199 155 282 228 73 64 158 84 250 59z m-2265 -1348 c10 -6 32 -16 48 -23 46 -21 138 -118 165 -174 20 -42 24 -66 24 -150 1 -89 -2 -106 -26 -158 -39 -81 -97 -140 -176 -178 -61 -30 -75 -33 -165 -33 -62 0 -101 4 -109 12 -7 7 -18 12 -26 12 -27 0 -120 75 -157 126 -52 71 -66 115 -67 209 -1 94 12 138 63 216 52 78 129 131 219 150 43 10 183 3 207 -9z m2174 -15 c248 -110 296 -450 86 -619 -78 -63 -131 -81 -237 -81 -84 -1 -102 3 -152 27 -129 64 -218 200 -218 334 0 168 126 327 290 363 62 14 171 3 231 -24z"></path>
</svg>
