<svg xmlns="http://www.w3.org/2000/svg" width="860" height="860" fill="#D45F76" viewBox="0 0 8600 8600">
  <path d="M4921 8143 c-18 -9 -55 -44 -83 -77 -27 -34 -63 -78 -80 -99 -16 -21 -42 -43 -57 -49 -17 -7 -189 -11 -481 -13 -501 -3 -547 -6 -845 -71 -88 -19 -169 -37 -181 -40 -19 -5 -22 0 -28 46 -22 163 -106 250 -244 250 -103 0 -154 -57 -183 -205 -15 -82 -30 -114 -70 -153 -74 -72 -188 -107 -476 -147 -529 -72 -753 -151 -1005 -354 -85 -68 -203 -190 -269 -276 -235 -311 -435 -826 -693 -1791 -41 -154 -84 -304 -95 -333 -63 -158 -67 -324 -12 -435 39 -81 120 -156 199 -187 49 -20 75 -23 190 -24 114 0 131 -2 126 -15 -43 -103 -50 -263 -15 -371 25 -80 85 -174 137 -218 52 -43 147 -87 225 -106 36 -8 157 -24 268 -35 112 -12 236 -27 275 -36 123 -25 267 -75 296 -103 15 -14 94 -100 175 -191 569 -635 778 -799 1260 -985 588 -226 570 -217 1040 -525 361 -237 419 -271 705 -415 346 -174 627 -291 1019 -424 195 -67 195 -67 231 -171 52 -153 94 -224 181 -312 64 -64 93 -84 180 -127 275 -133 544 -99 734 94 72 73 145 193 160 263 6 28 11 33 28 28 51 -12 297 -26 376 -21 165 11 191 15 253 31 241 62 383 257 362 496 -20 224 -165 392 -575 666 -361 241 -747 449 -1234 665 -361 160 -402 181 -570 291 -157 103 -262 189 -444 360 -179 168 -326 261 -478 300 -92 24 -140 23 -166 -2 -21 -22 -21 -22 0 -159 12 -76 47 -243 77 -370 39 -159 62 -287 76 -405 31 -264 65 -380 153 -520 63 -101 128 -171 209 -228 130 -92 275 -118 386 -70 149 64 254 289 239 510 -14 189 -92 311 -247 384 -57 27 -75 31 -151 30 -73 0 -94 -4 -142 -28 -104 -50 -143 -127 -135 -259 4 -61 11 -86 44 -146 65 -122 166 -201 255 -201 25 0 99 26 99 34 0 2 -20 1 -45 -1 -73 -9 -132 15 -192 75 -135 138 -153 349 -35 427 106 70 281 40 376 -66 63 -68 90 -140 94 -243 5 -112 -10 -191 -54 -283 -101 -212 -295 -225 -497 -34 -147 140 -214 295 -247 566 -28 237 -37 287 -81 475 -46 196 -82 397 -74 409 7 12 135 -38 213 -83 76 -45 140 -98 302 -251 237 -223 375 -321 670 -478 30 -16 159 -75 285 -132 438 -197 648 -303 938 -477 171 -102 418 -265 527 -348 105 -80 223 -207 262 -282 30 -58 32 -71 33 -158 0 -122 -3 -134 -47 -201 -46 -70 -119 -120 -213 -144 -101 -27 -395 -33 -542 -11 -59 9 -115 16 -124 16 -31 0 -50 -27 -82 -121 -38 -109 -72 -163 -146 -232 -194 -182 -525 -155 -734 59 -50 50 -130 199 -143 262 -7 33 -7 33 32 26 75 -14 315 -8 388 9 132 33 250 118 301 217 44 86 58 154 53 264 -4 107 -20 156 -78 241 -15 22 -36 60 -47 85 -50 111 -176 218 -313 267 -99 35 -264 43 -360 19 -192 -49 -316 -160 -376 -336 -26 -76 -26 -279 0 -364 19 -63 66 -163 97 -208 11 -14 19 -29 19 -32 0 -13 -437 139 -705 246 -358 143 -510 230 -985 567 -453 320 -553 377 -930 526 -499 198 -653 290 -934 565 -129 126 -427 442 -434 460 -2 5 9 10 24 12 33 4 49 27 41 59 -8 30 -226 359 -345 519 -47 63 -133 174 -192 245 -298 363 -346 501 -201 575 21 10 100 30 177 45 361 67 454 88 594 134 428 141 743 378 982 736 147 221 297 607 348 895 17 96 14 91 58 76 21 -8 108 -26 193 -41 347 -61 558 -119 709 -195 81 -41 198 -122 206 -144 3 -7 -2 -53 -10 -103 -27 -153 -38 -334 -27 -442 27 -262 159 -661 473 -1436 101 -250 121 -290 155 -312 19 -13 24 -12 43 7 28 28 35 -8 -124 610 -87 340 -97 400 -121 785 -16 246 -34 400 -60 499 -33 128 -103 275 -176 372 -30 41 -30 41 6 195 169 722 391 1291 553 1417 120 93 351 127 703 103 96 -6 240 -12 320 -13 132 -1 150 1 192 21 25 12 59 37 74 55 15 18 38 45 51 60 72 86 44 -99 -29 -193 -22 -28 -25 -70 -5 -96 18 -25 87 -33 274 -34 182 -1 198 4 276 86 52 54 56 57 72 41 15 -14 15 -21 4 -47 -16 -40 -83 -101 -141 -129 -110 -53 -281 -64 -559 -36 -172 17 -266 13 -343 -16 -63 -24 -87 -46 -87 -80 0 -36 16 -48 85 -62 45 -9 68 -8 107 1 27 7 51 11 54 9 9 -10 -9 -67 -31 -94 -22 -28 -26 -29 -102 -28 -59 2 -107 11 -198 39 -66 21 -127 39 -136 42 -30 9 -47 -24 -53 -99 -34 -432 -85 -934 -106 -1053 -5 -27 -22 -126 -39 -220 -59 -331 -63 -376 -58 -580 3 -170 7 -199 31 -280 35 -115 84 -205 200 -369 52 -72 113 -171 135 -221 94 -202 295 -485 683 -958 249 -302 447 -512 707 -747 148 -132 205 -223 316 -495 31 -77 66 -156 78 -175 44 -73 174 -193 302 -280 43 -30 47 -31 30 -10 -11 14 -66 69 -122 124 -56 54 -118 121 -137 149 -20 30 -62 126 -99 228 -36 97 -84 214 -108 260 -46 87 -137 209 -192 255 -129 108 -291 273 -465 474 -104 119 -397 489 -554 699 -52 69 -55 76 -42 96 10 16 16 91 24 291 25 668 74 1225 113 1272 38 47 147 69 432 87 132 8 266 22 297 30 118 30 187 101 232 237 15 44 48 109 76 151 56 83 80 142 80 199 0 94 -83 161 -176 143 -27 -5 -60 -30 -138 -104 -102 -99 -102 -99 -177 -112 -93 -17 -438 -18 -564 0 -171 23 -156 14 -149 86 14 133 -41 232 -141 253 -95 20 -160 -23 -220 -148 -20 -41 -43 -90 -53 -109 -13 -26 -41 -48 -117 -92 -100 -57 -100 -57 -103 22 -2 50 6 135 22 232 22 135 63 436 81 600 6 49 9 57 23 52 45 -17 190 -56 248 -66 153 -27 258 52 272 204 5 59 5 59 51 53 309 -42 541 -25 670 51 110 64 191 174 191 258 0 78 -71 145 -155 145 -48 0 -86 -23 -141 -87 -42 -48 -42 -48 -164 -52 -67 -2 -126 1 -131 6 -6 6 -3 24 7 48 42 102 35 211 -17 261 -27 26 -37 29 -95 29 -65 0 -65 0 -138 -79 -74 -79 -74 -79 -262 -72 -104 3 -280 9 -391 12 -287 9 -443 -14 -591 -90 -155 -80 -303 -343 -455 -811 -71 -218 -163 -561 -197 -730 -7 -33 -14 -63 -17 -67 -2 -4 -30 10 -62 32 -177 121 -406 191 -821 251 -316 46 -284 20 -291 234 -7 179 -18 245 -63 374 -9 24 -14 47 -11 51 3 5 22 14 42 21 37 12 104 10 288 -11 111 -12 149 -3 230 55 81 58 204 189 235 250 14 28 29 53 34 57 5 3 84 7 175 7 387 3 503 41 602 194 37 57 69 162 69 226 0 61 -22 131 -50 161 -24 26 -35 30 -82 30 -29 0 -68 -8 -87 -17z m89 -176 c0 -135 -73 -237 -194 -272 -68 -19 -274 -35 -465 -35 -310 -1 -615 -35 -678 -76 -30 -19 -30 -67 -2 -95 11 -11 48 -34 82 -50 49 -23 76 -29 128 -29 70 0 95 12 197 95 28 22 54 35 73 35 16 0 29 -2 29 -6 0 -29 -161 -201 -230 -246 -45 -29 -45 -29 -235 -22 -174 6 -194 5 -241 -13 -51 -20 -51 -20 -78 23 -46 73 -167 179 -248 217 -94 45 -154 57 -283 57 -182 0 -351 -49 -590 -169 -428 -216 -872 -599 -1202 -1036 -132 -176 -259 -378 -473 -755 -105 -185 -280 -464 -286 -457 -7 7 128 452 220 723 101 300 172 478 271 679 117 239 184 335 335 485 176 175 319 266 520 331 134 43 227 62 540 109 356 54 450 84 556 182 53 49 77 98 104 212 25 110 32 120 79 111 72 -13 99 -63 108 -194 6 -96 20 -121 64 -121 15 0 100 18 188 39 327 81 567 102 1051 94 255 -5 304 -3 360 11 83 21 101 34 158 108 71 93 113 138 128 138 11 0 14 -18 14 -73z m-1080 -447 c-8 -5 -31 -9 -50 -9 -32 1 -33 2 -10 9 14 4 36 8 50 9 20 1 22 -1 10 -9z m-939 -100 c120 -22 263 -127 320 -234 23 -44 23 -44 -3 -102 -57 -134 -61 -212 -18 -348 18 -56 32 -79 81 -129 59 -61 59 -61 38 -187 -33 -195 -114 -445 -208 -645 -123 -259 -298 -479 -516 -648 -258 -200 -550 -316 -1034 -412 -73 -15 -151 -33 -174 -41 -22 -8 -42 -12 -45 -9 -3 3 48 60 114 128 384 391 671 845 789 1246 71 243 105 457 105 668 0 140 0 143 -25 159 -27 18 -60 12 -74 -14 -5 -9 -34 -109 -66 -222 -85 -306 -153 -472 -260 -635 -158 -243 -320 -361 -710 -520 -228 -93 -335 -141 -425 -190 -98 -55 -408 -257 -493 -322 -31 -24 -57 -42 -57 -39 0 3 56 88 123 189 68 100 175 272 237 382 352 622 510 845 820 1156 207 208 335 314 553 459 235 157 466 266 647 304 78 17 207 20 281 6z m409 -463 c13 -52 24 -144 28 -212 5 -120 5 -120 -19 -104 -81 54 -116 236 -69 362 12 31 25 55 30 52 5 -3 18 -47 30 -98z m2995 -437 c22 -24 24 -117 5 -175 -11 -33 -10 -43 10 -85 22 -47 22 -47 128 -59 158 -18 601 -26 692 -12 138 21 165 35 271 138 81 79 98 91 108 79 20 -24 -2 -74 -79 -181 -20 -27 -44 -77 -54 -110 -41 -136 -80 -177 -183 -194 -37 -6 -144 -16 -238 -21 -93 -6 -205 -15 -248 -21 -161 -21 -274 -75 -303 -144 -43 -103 -82 -567 -100 -1177 -4 -126 -10 -228 -14 -228 -4 0 -54 60 -110 133 -94 120 -106 140 -132 222 -34 107 -71 294 -94 471 -13 99 -17 197 -16 419 1 277 0 295 -24 400 -43 190 -52 162 69 234 57 34 112 70 121 80 10 11 36 61 58 113 57 133 92 164 133 118z m-4135 -327 c-47 -182 -79 -269 -164 -447 -183 -381 -618 -904 -978 -1176 -68 -51 -82 -58 -121 -58 -52 1 -89 -19 -191 -104 -84 -71 -161 -98 -287 -101 -118 -3 -171 15 -235 77 -65 63 -90 135 -80 230 12 119 16 125 144 232 138 115 392 305 478 358 80 49 195 97 439 186 236 85 414 168 522 242 204 139 378 380 492 681 24 62 17 18 -19 -120z m3635 -255 c26 -109 27 -117 20 -312 -9 -247 4 -421 51 -716 5 -35 5 -35 -16 -11 -39 45 -89 146 -116 236 -27 87 -28 97 -28 325 -1 195 3 261 22 390 23 155 31 200 37 200 2 0 15 -50 30 -112z m-1057 -35 c82 -160 112 -291 132 -583 24 -353 31 -431 51 -550 21 -125 52 -255 108 -449 17 -58 29 -107 27 -109 -14 -13 -214 575 -304 894 -87 307 -97 362 -97 544 0 150 19 330 35 330 4 0 26 -35 48 -77z m-3536 -1399 c-10 -119 52 -238 298 -574 136 -186 370 -536 370 -554 0 -3 -13 0 -30 5 -17 7 -81 66 -157 147 -70 76 -212 225 -316 333 -103 108 -214 230 -246 273 -54 71 -124 199 -132 238 -3 12 28 41 101 97 58 44 107 80 110 81 3 0 4 -20 2 -46z m-297 -256 c82 -163 121 -213 390 -493 266 -278 257 -267 213 -254 -64 18 -194 39 -348 54 -329 34 -425 76 -497 223 -37 73 -38 79 -38 182 0 105 0 107 43 193 43 87 43 87 120 127 42 21 78 39 79 40 1 0 19 -33 38 -72z m5673 -2623 c39 -15 72 -30 72 -34 0 -3 -43 -5 -95 -3 -240 8 -425 -125 -442 -317 -19 -203 196 -377 462 -374 104 1 168 19 235 64 40 28 63 54 125 144 13 18 14 16 9 -20 -18 -130 -77 -227 -170 -277 -93 -50 -156 -63 -314 -63 -218 0 -224 2 -313 90 -134 132 -202 315 -179 479 26 179 123 288 297 333 82 21 226 11 313 -22z m108 -160 c24 -7 64 -25 88 -39 53 -31 66 -64 66 -167 0 -152 -105 -247 -271 -249 -117 0 -248 56 -308 131 -32 42 -47 110 -33 156 25 83 123 160 232 183 54 11 164 4 226 -15z"></path>
</svg>