<svg xmlns="http://www.w3.org/2000/svg" width="1029" height="838" viewBox="0 0 10290 8380" fill='#D45F76'>
  <path d="M5139 8252 c-55 -36 -396 -386 -594 -611 l-69 -79 -111 112 c-237 241 -547 393 -977 480 -163 32 -274 44 -508 51 -311 9 -528 -19 -597 -79 l-28 -25 23 -65 c61 -177 200 -447 377 -731 61 -99 115 -185 119 -192 5 -9 -27 -12 -130 -12 -214 -1 -361 -22 -659 -97 -518 -130 -1376 -479 -1801 -733 -120 -73 -139 -90 -130 -126 9 -37 143 -121 405 -254 552 -280 1004 -451 1471 -559 400 -92 685 -96 931 -12 108 37 329 140 409 191 63 40 118 62 280 113 324 102 648 284 968 543 29 24 55 43 57 43 11 0 53 -100 117 -279 95 -266 164 -408 221 -455 55 -45 90 -52 159 -32 142 41 330 230 603 609 l49 68 166 -169 c209 -213 302 -286 455 -362 133 -66 223 -92 371 -110 194 -23 452 21 504 87 58 74 -20 204 -277 460 l-162 162 117 74 c554 350 1055 568 1447 632 119 20 367 19 481 0 290 -51 690 -241 1012 -482 134 -100 322 -260 322 -273 0 -11 -259 -183 -405 -270 -400 -238 -974 -477 -1305 -543 -199 -41 -332 -50 -623 -44 -235 4 -275 8 -382 31 -192 42 -213 45 -227 29 -23 -29 5 -47 118 -76 670 -170 1183 -388 1457 -622 170 -144 312 -354 452 -669 110 -249 258 -707 233 -722 -29 -18 -292 -27 -483 -15 -344 20 -583 82 -873 228 -125 62 -144 69 -157 57 -13 -13 -4 -37 75 -193 146 -292 243 -538 277 -701 24 -117 28 -399 9 -560 -21 -172 -64 -384 -116 -575 -54 -194 -63 -215 -92 -215 -32 0 -322 99 -453 155 -380 162 -679 360 -930 614 -80 81 -97 92 -112 69 -4 -7 -13 -209 -20 -448 -12 -469 -20 -563 -59 -710 -65 -248 -269 -661 -370 -750 -82 -71 -198 -12 -443 226 -208 201 -470 548 -725 961 -31 51 -61 95 -67 99 -18 11 -49 -28 -189 -236 -284 -422 -472 -664 -669 -861 -142 -142 -195 -179 -256 -179 -49 0 -80 18 -147 87 -100 103 -191 265 -292 520 -98 249 -211 666 -252 933 -18 115 -25 415 -14 560 5 60 3 65 -16 68 -16 2 -39 -19 -94 -83 -120 -142 -293 -287 -473 -396 -94 -58 -465 -242 -642 -319 -130 -57 -355 -150 -361 -150 -8 0 -3 513 6 710 23 478 86 728 286 1139 120 244 122 239 -68 183 -167 -50 -242 -57 -598 -56 -280 1 -363 5 -505 23 -195 25 -215 28 -215 39 0 9 253 327 394 496 342 408 748 807 956 942 147 94 273 146 465 192 153 36 310 52 530 52 176 0 419 -16 442 -29 11 -6 -10 -25 -83 -76 -148 -102 -289 -221 -423 -357 -196 -200 -281 -319 -386 -543 -213 -453 -323 -1025 -228 -1186 74 -125 323 -60 922 244 l294 148 -6 -53 c-18 -160 -28 -527 -18 -680 18 -290 89 -452 207 -474 50 -9 139 3 192 26 142 63 355 263 539 507 46 62 88 115 92 117 4 3 33 -68 65 -157 183 -507 322 -791 449 -918 103 -104 178 -104 278 1 87 91 153 231 228 486 35 116 112 466 123 554 2 14 8 24 13 22 6 -2 66 -52 135 -111 264 -227 453 -351 599 -395 75 -22 120 -20 171 7 78 41 100 117 149 503 25 192 71 652 71 703 0 53 13 62 64 45 104 -38 499 -129 682 -159 139 -23 290 -30 340 -16 59 16 79 42 78 105 -1 126 -140 424 -395 851 -256 427 -395 600 -597 744 -174 123 -505 298 -549 289 -42 -8 -21 -40 114 -175 322 -322 461 -626 397 -868 -29 -112 -131 -282 -325 -540 -136 -181 -136 -182 -148 -170 -16 17 -69 208 -100 363 -37 182 -56 312 -76 516 -9 88 -25 203 -36 255 -47 218 -190 590 -265 688 -61 80 -119 38 -604 -425 -200 -191 -283 -262 -305 -262 -51 0 -271 298 -473 640 -47 80 -98 158 -113 173 -27 27 -29 27 -63 13 -92 -38 -259 -178 -451 -377 -179 -186 -263 -311 -301 -449 -26 -92 -26 -457 -1 -655 21 -159 58 -343 80 -395 61 -141 125 -72 363 392 l135 263 -8 -75 c-5 -41 -8 -156 -7 -255 1 -166 3 -187 28 -270 47 -157 207 -466 284 -547 14 -16 34 -28 44 -28 27 0 102 74 178 174 35 47 66 84 67 82 2 -2 -4 -19 -12 -39 -22 -54 -19 -98 16 -184 59 -150 221 -433 259 -453 35 -19 85 -11 136 21 66 42 225 206 296 305 94 131 112 169 110 232 -2 62 -5 63 83 -20 114 -106 143 -117 198 -69 76 67 154 233 189 400 27 129 21 318 -11 403 -63 164 -112 169 -318 36 -52 -33 -96 -58 -99 -55 -4 3 25 44 62 92 144 179 223 351 211 454 -9 74 -31 119 -63 127 -15 4 -34 2 -43 -3 -31 -19 -88 -105 -171 -259 -47 -86 -95 -170 -106 -186 -22 -29 -22 -29 -27 -6 -6 22 -4 61 23 403 10 123 10 157 -1 190 -13 36 -18 40 -51 43 -53 4 -67 -13 -214 -272 -133 -233 -172 -291 -205 -301 -35 -12 -59 20 -208 272 -111 188 -189 262 -278 263 -45 0 -60 -8 -82 -43 -60 -97 -22 -375 76 -572 75 -149 175 -270 250 -301 95 -40 109 46 36 228 -39 98 -71 142 -97 132 -24 -9 -20 -36 24 -138 22 -51 43 -109 46 -127 l7 -34 -47 45 c-80 76 -197 286 -229 411 -19 71 -31 226 -22 279 19 113 135 31 260 -185 93 -161 136 -225 179 -263 105 -92 159 -44 360 318 54 96 106 184 117 195 19 19 19 19 19 -21 0 -23 -6 -108 -14 -190 -27 -277 -29 -348 -12 -387 16 -41 47 -54 87 -38 32 12 72 72 184 276 96 177 114 203 127 183 23 -37 -2 -152 -58 -258 -46 -87 -109 -169 -254 -330 -151 -167 -155 -173 -140 -199 23 -44 74 -21 304 138 171 119 242 157 261 141 56 -46 82 -283 50 -441 -28 -139 -120 -343 -169 -374 -14 -8 -39 13 -149 125 -73 74 -166 172 -207 218 -42 47 -84 84 -95 85 -34 3 -30 -39 9 -99 57 -85 134 -235 141 -274 5 -27 0 -47 -20 -85 -83 -155 -339 -425 -403 -425 -15 0 -35 22 -72 82 -75 120 -191 359 -197 405 -4 34 4 59 60 176 82 172 93 203 77 222 -33 40 -63 12 -248 -230 -67 -88 -134 -173 -148 -190 l-27 -29 -23 27 c-58 68 -190 324 -227 442 -14 44 -30 115 -37 157 -19 119 -7 348 29 560 17 98 28 184 25 192 -9 23 -31 26 -49 6 -9 -10 -104 -193 -210 -407 -193 -387 -267 -519 -284 -508 -20 12 -73 289 -91 470 -12 127 -12 378 0 473 21 160 91 271 317 503 151 154 314 298 372 329 30 15 30 15 116 -130 37 -63 110 -180 163 -260 185 -283 284 -398 363 -422 60 -17 58 -19 505 407 251 239 335 310 359 302 17 -7 96 -169 153 -317 83 -214 124 -391 142 -615 25 -301 119 -766 180 -885 24 -46 52 -65 78 -51 92 51 450 564 515 739 31 85 31 259 -1 362 -46 147 -145 317 -277 474 -36 43 -64 80 -62 83 5 4 206 -109 267 -150 79 -55 201 -168 263 -246 244 -306 661 -1051 708 -1265 12 -54 11 -60 -6 -72 -12 -9 -46 -14 -94 -14 -146 1 -380 44 -794 147 -199 50 -229 55 -242 42 -11 -10 -20 -79 -35 -254 -26 -304 -54 -546 -86 -752 -28 -182 -38 -218 -68 -251 -18 -21 -28 -23 -76 -20 -134 10 -367 156 -655 409 -155 137 -184 159 -201 159 -16 0 -24 -31 -59 -230 -52 -300 -143 -617 -222 -774 -45 -89 -135 -186 -173 -186 -127 0 -306 325 -545 990 -64 179 -91 230 -114 216 -6 -4 -49 -61 -96 -127 -276 -383 -535 -598 -698 -576 -78 11 -121 83 -154 260 -24 130 -24 548 1 780 10 92 15 174 12 182 -9 26 -48 16 -131 -31 -142 -82 -516 -268 -665 -331 -181 -76 -278 -106 -354 -107 -58 -1 -60 0 -80 34 -18 31 -21 51 -21 160 1 184 43 396 130 648 124 363 266 601 495 832 147 149 286 261 465 378 154 100 165 110 158 127 -25 66 -665 98 -1001 50 -204 -29 -426 -105 -587 -202 -300 -180 -788 -677 -1282 -1304 -97 -123 -183 -243 -183 -256 0 -20 41 -32 180 -53 200 -30 362 -40 656 -40 290 0 411 9 540 40 43 10 80 17 82 15 2 -1 -26 -65 -61 -141 -152 -327 -233 -624 -256 -939 -13 -173 -26 -881 -17 -928 6 -31 11 -37 33 -37 45 0 510 203 807 352 324 162 448 244 631 418 l100 95 6 -170 c13 -320 75 -640 200 -1023 121 -367 244 -614 378 -755 107 -112 168 -145 236 -126 98 27 324 232 508 462 107 133 299 398 437 605 63 94 119 170 124 169 5 -2 59 -80 120 -175 135 -209 294 -433 401 -567 100 -124 324 -347 430 -427 108 -82 144 -98 231 -98 l72 0 51 55 c158 173 357 612 406 895 18 101 35 370 35 550 0 69 3 182 7 252 l6 127 86 -81 c300 -281 743 -526 1219 -674 78 -24 154 -44 168 -44 31 0 48 36 98 211 141 493 187 914 131 1207 -32 166 -127 424 -236 644 -33 65 -59 122 -59 128 0 5 35 -6 78 -26 107 -49 318 -118 437 -142 223 -46 324 -55 595 -49 285 5 360 16 360 50 0 36 -65 271 -118 427 -192 567 -439 950 -742 1149 -131 86 -407 222 -643 315 -108 43 -196 80 -194 82 2 2 81 8 175 14 180 10 372 37 507 69 459 112 1082 403 1530 716 128 89 165 122 165 146 0 10 -42 56 -94 104 -384 353 -864 621 -1265 706 -125 26 -337 35 -466 20 -395 -46 -860 -232 -1410 -562 -159 -95 -295 -188 -309 -211 -9 -15 15 -43 161 -183 94 -91 193 -193 218 -228 57 -74 100 -159 92 -179 -7 -20 -102 -45 -225 -59 -113 -13 -277 -2 -387 27 -88 22 -249 104 -346 174 -48 35 -163 142 -269 251 -237 242 -221 239 -345 59 -163 -236 -390 -481 -496 -533 -78 -39 -108 -36 -156 16 -53 58 -91 140 -174 375 -38 107 -81 221 -95 253 -28 62 -73 109 -103 109 -10 0 -76 -45 -147 -100 -242 -189 -443 -311 -663 -401 -189 -77 -251 -100 -251 -90 0 5 21 33 46 63 75 88 132 192 160 293 12 43 11 51 -3 67 -14 16 -18 16 -47 1 -60 -30 -612 -401 -687 -461 -89 -72 -107 -102 -78 -127 16 -16 33 -17 131 -12 l113 5 -100 -48 c-130 -64 -292 -116 -402 -131 -104 -14 -320 -6 -473 16 -469 71 -1063 282 -1692 603 -249 126 -338 179 -338 199 0 18 126 89 365 207 601 297 1263 537 1735 630 150 29 415 50 521 41 76 -7 77 -7 130 -62 138 -140 492 -356 714 -436 214 -76 454 -74 496 5 57 107 -208 297 -586 421 -159 53 -280 82 -461 112 -87 15 -169 33 -181 41 -29 18 -116 148 -228 339 -105 180 -305 579 -305 610 0 34 43 47 195 64 239 26 446 22 690 -15 363 -54 695 -173 907 -324 103 -73 207 -172 267 -252 l43 -58 -26 -92 c-35 -128 -46 -204 -46 -334 0 -317 101 -507 219 -409 82 70 110 337 56 544 -15 60 -63 179 -104 259 -18 35 -19 46 -10 65 20 38 97 125 299 337 234 246 339 350 352 350 28 0 340 -331 433 -460 80 -112 153 -237 171 -296 l16 -50 -70 -135 c-117 -221 -167 -400 -161 -568 4 -78 7 -93 28 -115 75 -79 184 -8 241 159 50 144 54 179 55 424 l1 234 59 70 c67 80 199 198 281 252 174 115 441 199 784 246 148 21 578 18 720 -4 162 -25 246 -46 270 -65 l21 -17 -26 -75 c-81 -224 -243 -475 -440 -679 -175 -181 -343 -304 -600 -439 -88 -46 -166 -88 -172 -94 -17 -14 -17 -45 0 -51 35 -13 216 76 402 197 287 189 521 423 693 692 108 172 202 382 202 455 0 34 -5 42 -37 63 -112 74 -468 115 -815 96 -316 -18 -537 -57 -758 -137 -211 -75 -345 -161 -519 -330 -53 -51 -99 -93 -103 -93 -4 0 -20 24 -34 53 -37 72 -136 227 -203 317 -93 124 -400 430 -432 430 -3 0 -25 -13 -50 -28z m-610 -943 c61 -160 65 -182 66 -354 0 -153 -1 -163 -26 -210 -34 -66 -51 -68 -76 -8 -46 108 -62 274 -44 458 13 128 26 195 41 195 4 0 22 -36 39 -81z m1298 -213 c-9 -227 -53 -389 -123 -457 -35 -33 -36 -34 -51 -14 -12 16 -14 41 -10 125 7 132 38 243 114 403 70 147 78 140 70 -57z m-2657 -112 c256 -54 384 -96 563 -185 153 -77 238 -131 277 -175 35 -41 30 -58 -23 -70 -112 -25 -287 11 -475 97 -203 93 -522 298 -556 356 -7 13 -1 14 45 8 30 -4 106 -18 169 -31z m435 -1038 c-56 -111 -198 -266 -284 -311 -23 -11 -93 -25 -258 -50 -26 -4 -43 -3 -43 3 0 5 26 29 58 53 90 69 545 370 550 364 3 -2 -8 -29 -23 -59z"></path>
</svg>