<svg version="1.0" xmlns="http://www.w3.org/2000/svg"
 width="544.000000pt" height="459.000000pt" viewBox="0 0 544.000000 459.000000"
 preserveAspectRatio="xMidYMid meet">

<g transform="translate(0.000000,459.000000) scale(0.100000,-0.100000)"
fill="#14757D" stroke="none">
<path d="M2605 4523 c-205 -8 -425 -36 -580 -74 -253 -63 -555 -188 -747 -310
-165 -105 -406 -299 -407 -328 -1 -7 71 -132 160 -277 88 -145 159 -268 157
-273 -1 -5 -104 85 -228 200 -124 115 -229 207 -235 206 -19 -6 -205 -259
-269 -366 -218 -364 -342 -741 -387 -1186 -14 -145 -7 -425 16 -575 115 -756
580 -1282 1253 -1420 218 -44 515 -46 719 -4 177 35 445 146 588 243 33 22 65
41 71 41 6 0 42 -20 80 -45 307 -202 668 -293 1054 -265 391 28 714 160 973
397 32 28 57 56 57 61 0 5 -48 40 -107 78 -60 37 -157 100 -218 139 -60 39
-165 107 -232 150 -68 44 -123 84 -123 88 0 5 6 7 14 4 8 -3 34 -11 58 -17 24
-6 106 -31 183 -55 393 -121 572 -175 587 -175 10 0 35 31 62 78 246 419 323
952 221 1529 -72 411 -247 811 -503 1153 -86 115 -355 400 -377 400 -6 0 -155
-124 -331 -276 -516 -446 -548 -474 -556 -474 -10 0 -12 -2 326 507 157 238
286 437 286 441 0 10 -166 104 -275 156 -173 83 -395 155 -598 196 -176 36
-499 61 -692 53z m163 -1446 c57 -73 109 -187 133 -292 12 -50 23 -96 25 -103
2 -7 38 24 80 68 82 86 186 161 274 197 75 30 82 22 88 -105 5 -110 -7 -196
-43 -309 l-24 -75 22 5 c12 3 54 15 92 26 112 33 229 45 315 32 41 -7 76 -14
79 -17 11 -11 -34 -113 -84 -189 -28 -44 -86 -114 -128 -155 l-76 -75 87 -21
c48 -12 113 -32 144 -44 61 -23 193 -105 218 -135 13 -16 11 -21 -30 -56 -25
-21 -70 -52 -101 -69 -62 -33 -210 -84 -277 -95 l-44 -7 84 -87 c47 -47 104
-114 127 -148 53 -79 89 -169 73 -185 -17 -17 -146 -25 -244 -17 -48 5 -121
20 -163 34 -41 14 -79 25 -84 25 -5 0 2 -33 15 -74 12 -40 28 -104 35 -141 13
-78 7 -261 -9 -277 -8 -8 -23 -8 -54 1 -79 23 -180 92 -276 188 -52 51 -96 93
-98 93 -2 0 -4 -11 -4 -23 0 -45 -41 -183 -76 -257 -39 -83 -109 -180 -130
-180 -18 0 -97 113 -134 191 -30 66 -70 204 -70 246 0 12 -2 23 -5 23 -3 0
-39 -36 -82 -80 -42 -45 -110 -103 -150 -130 -83 -55 -177 -90 -194 -73 -18
18 -23 184 -9 270 6 42 23 110 36 150 13 41 24 75 24 76 0 2 -37 -9 -82 -24
-148 -49 -363 -62 -414 -25 -17 13 -17 16 -1 57 32 84 93 173 185 270 l92 97
-42 7 c-125 21 -301 98 -383 168 -36 32 -38 36 -25 52 25 30 146 105 220 135
37 15 103 35 146 44 43 9 79 18 81 20 2 2 -28 34 -68 72 -39 38 -93 99 -119
136 -58 82 -108 194 -93 209 6 6 41 15 79 20 86 12 209 -1 330 -36 47 -14 88
-24 90 -22 2 2 -8 34 -21 73 -34 97 -48 203 -43 312 7 121 14 129 91 97 89
-37 186 -107 271 -195 43 -45 78 -75 80 -68 2 7 14 53 25 102 31 135 144 346
185 346 7 0 32 -24 54 -53z"/>
</g>
</svg>
