<svg version="1.0" xmlns="http://www.w3.org/2000/svg" width="725.333" height="612" viewBox="0 0 544 459"><path d="M260.5 6.7c-20.5.8-42.5 3.6-58 7.4-25.3 6.3-55.5 18.8-74.7 31C111.3 55.6 87.2 75 87.1 77.9c-.1.7 7.1 13.2 16 27.7 8.8 14.5 15.9 26.8 15.7 27.3-.1.5-10.4-8.5-22.8-20S73.1 92.2 72.5 92.3c-1.9.6-20.5 25.9-26.9 36.6C23.8 165.3 11.4 203 6.9 247.5 5.5 262 6.2 290 8.5 305c11.5 75.6 58 128.2 125.3 142 21.8 4.4 51.5 4.6 71.9.4 17.7-3.5 44.5-14.6 58.8-24.3 3.3-2.2 6.5-4.1 7.1-4.1.6 0 4.2 2 8 4.5 30.7 20.2 66.8 29.3 105.4 26.5 39.1-2.8 71.4-16 97.3-39.7 3.2-2.8 5.7-5.6 5.7-6.1s-4.8-4-10.7-7.8c-6-3.7-15.7-10-21.8-13.9-6-3.9-16.5-10.7-23.2-15-6.8-4.4-12.3-8.4-12.3-8.8 0-.5.6-.7 1.4-.4.8.3 3.4 1.1 5.8 1.7 2.4.6 10.6 3.1 18.3 5.5 39.3 12.1 57.2 17.5 58.7 17.5 1 0 3.5-3.1 6.2-7.8 24.6-41.9 32.3-95.2 22.1-152.9-7.2-41.1-24.7-81.1-50.3-115.3-8.6-11.5-35.5-40-37.7-40-.6 0-15.5 12.4-33.1 27.6-51.6 44.6-54.8 47.4-55.6 47.4-1 0-1.2.2 32.6-50.7C404.1 67.5 417 47.6 417 47.2c0-1-16.6-10.4-27.5-15.6-17.3-8.3-39.5-15.5-59.8-19.6-17.6-3.6-49.9-6.1-69.2-5.3zm16.3 144.6c5.7 7.3 10.9 18.7 13.3 29.2 1.2 5 2.3 9.6 2.5 10.3.2.7 3.8-2.4 8-6.8 8.2-8.6 18.6-16.1 27.4-19.7 7.5-3 8.2-2.2 8.8 10.5.5 11-.7 19.6-4.3 30.9l-2.4 7.5 2.2-.5c1.2-.3 5.4-1.5 9.2-2.6 11.2-3.3 22.9-4.5 31.5-3.2 4.1.7 7.6 1.4 7.9 1.7 1.1 1.1-3.4 11.3-8.4 18.9-2.8 4.4-8.6 11.4-12.8 15.5l-7.6 7.5 8.7 2.1c4.8 1.2 11.3 3.2 14.4 4.4 6.1 2.3 19.3 10.5 21.8 13.5 1.3 1.6 1.1 2.1-3 5.6-2.5 2.1-7 5.2-10.1 6.9-6.2 3.3-21 8.4-27.7 9.5l-4.4.7 8.4 8.7c4.7 4.7 10.4 11.4 12.7 14.8 5.3 7.9 8.9 16.9 7.3 18.5-1.7 1.7-14.6 2.5-24.4 1.7-4.8-.5-12.1-2-16.3-3.4-4.1-1.4-7.9-2.5-8.4-2.5s.2 3.3 1.5 7.4c1.2 4 2.8 10.4 3.5 14.1 1.3 7.8.7 26.1-.9 27.7-.8.8-2.3.8-5.4-.1-7.9-2.3-18-9.2-27.6-18.8-5.2-5.1-9.6-9.3-9.8-9.3-.2 0-.4 1.1-.4 2.3 0 4.5-4.1 18.3-7.6 25.7-3.9 8.3-10.9 18-13 18-1.8 0-9.7-11.3-13.4-19.1-3-6.6-7-20.4-7-24.6 0-1.2-.2-2.3-.5-2.3s-3.9 3.6-8.2 8c-4.2 4.5-11 10.3-15 13-8.3 5.5-17.7 9-19.4 7.3-1.8-1.8-2.3-18.4-.9-27 .6-4.2 2.3-11 3.6-15 1.3-4.1 2.4-7.5 2.4-7.6 0-.2-3.7.9-8.2 2.4-14.8 4.9-36.3 6.2-41.4 2.5-1.7-1.3-1.7-1.6-.1-5.7 3.2-8.4 9.3-17.3 18.5-27l9.2-9.7-4.2-.7c-12.5-2.1-30.1-9.8-38.3-16.8-3.6-3.2-3.8-3.6-2.5-5.2 2.5-3 14.6-10.5 22-13.5 3.7-1.5 10.3-3.5 14.6-4.4 4.3-.9 7.9-1.8 8.1-2 .2-.2-2.8-3.4-6.8-7.2-3.9-3.8-9.3-9.9-11.9-13.6-5.8-8.2-10.8-19.4-9.3-20.9.6-.6 4.1-1.5 7.9-2 8.6-1.2 20.9.1 33 3.6 4.7 1.4 8.8 2.4 9 2.2.2-.2-.8-3.4-2.1-7.3-3.4-9.7-4.8-20.3-4.3-31.2.7-12.1 1.4-12.9 9.1-9.7 8.9 3.7 18.6 10.7 27.1 19.5 4.3 4.5 7.8 7.5 8 6.8.2-.7 1.4-5.3 2.5-10.2 3.1-13.5 14.4-34.6 18.5-34.6.7 0 3.2 2.4 5.4 5.3z" fill="#14757D"/></svg>